<svg xmlns="http://www.w3.org/2000/svg" xmlns:xlink="http://www.w3.org/1999/xlink" width="238" zoomAndPan="magnify" viewBox="0 0 178.5 42" height="56" preserveAspectRatio="xMidYMid meet" version="1.0"><defs><g/><clipPath id="8bd41b916e"><path d="M 42 7 L 63.484375 7 L 63.484375 38.699219 L 42 38.699219 Z M 42 7 " clip-rule="nonzero"/></clipPath><clipPath id="e76e8a6723"><path d="M 2.195312 0.28125 L 42 0.28125 L 42 38.699219 L 2.195312 38.699219 Z M 2.195312 0.28125 " clip-rule="nonzero"/></clipPath></defs><g fill="#039be5" fill-opacity="0.4"><g transform="translate(63.698996, 28.158573)"><g><path d="M 4.671875 -9.015625 C 5.804688 -9.015625 6.738281 -8.785156 7.46875 -8.328125 C 8.207031 -7.867188 8.582031 -7.191406 8.59375 -6.296875 L 8.59375 -6.140625 L 5.921875 -6.140625 L 5.921875 -6.1875 C 5.921875 -6.445312 5.828125 -6.660156 5.640625 -6.828125 C 5.453125 -7.003906 5.164062 -7.09375 4.78125 -7.09375 C 4.40625 -7.09375 4.113281 -7.035156 3.90625 -6.921875 C 3.707031 -6.804688 3.609375 -6.671875 3.609375 -6.515625 C 3.609375 -6.273438 3.742188 -6.097656 4.015625 -5.984375 C 4.296875 -5.878906 4.738281 -5.765625 5.34375 -5.640625 C 6.0625 -5.492188 6.648438 -5.34375 7.109375 -5.1875 C 7.566406 -5.03125 7.96875 -4.769531 8.3125 -4.40625 C 8.65625 -4.039062 8.832031 -3.550781 8.84375 -2.9375 C 8.84375 -1.882812 8.488281 -1.101562 7.78125 -0.59375 C 7.070312 -0.09375 6.125 0.15625 4.9375 0.15625 C 3.550781 0.15625 2.472656 -0.0703125 1.703125 -0.53125 C 0.929688 -1 0.546875 -1.820312 0.546875 -3 L 3.25 -3 C 3.25 -2.550781 3.363281 -2.25 3.59375 -2.09375 C 3.820312 -1.945312 4.179688 -1.875 4.671875 -1.875 C 5.035156 -1.875 5.332031 -1.910156 5.5625 -1.984375 C 5.800781 -2.066406 5.921875 -2.226562 5.921875 -2.46875 C 5.921875 -2.6875 5.789062 -2.847656 5.53125 -2.953125 C 5.269531 -3.066406 4.84375 -3.179688 4.25 -3.296875 C 3.53125 -3.453125 2.929688 -3.613281 2.453125 -3.78125 C 1.984375 -3.945312 1.570312 -4.222656 1.21875 -4.609375 C 0.875 -4.992188 0.703125 -5.519531 0.703125 -6.1875 C 0.703125 -7.15625 1.078125 -7.867188 1.828125 -8.328125 C 2.578125 -8.785156 3.523438 -9.015625 4.671875 -9.015625 Z M 4.671875 -9.015625 "/></g></g></g><g fill="#039be5" fill-opacity="0.4"><g transform="translate(72.271624, 28.158573)"><g><path d="M 4.796875 -8.875 C 7.898438 -8.875 9.453125 -7.394531 9.453125 -4.4375 C 9.453125 -1.476562 7.898438 0 4.796875 0 L 0.953125 0 L 0.953125 -8.875 Z M 3.796875 -2.125 L 4.75 -2.125 C 5.9375 -2.125 6.53125 -2.765625 6.53125 -4.046875 L 6.53125 -4.828125 C 6.53125 -6.097656 5.9375 -6.734375 4.75 -6.734375 L 3.796875 -6.734375 Z M 3.796875 -2.125 "/></g></g></g><g fill="#039be5" fill-opacity="0.4"><g transform="translate(81.566189, 28.158573)"><g><path d="M 5.40625 -9.015625 C 6.257812 -9.015625 7.023438 -8.882812 7.703125 -8.625 C 8.390625 -8.375 8.929688 -7.992188 9.328125 -7.484375 C 9.722656 -6.984375 9.921875 -6.375 9.921875 -5.65625 L 7.203125 -5.65625 C 7.203125 -6.03125 7.035156 -6.328125 6.703125 -6.546875 C 6.378906 -6.773438 5.988281 -6.890625 5.53125 -6.890625 C 4.863281 -6.890625 4.359375 -6.710938 4.015625 -6.359375 C 3.671875 -6.003906 3.5 -5.5 3.5 -4.84375 L 3.5 -4.015625 C 3.5 -3.367188 3.671875 -2.863281 4.015625 -2.5 C 4.359375 -2.144531 4.863281 -1.96875 5.53125 -1.96875 C 5.988281 -1.96875 6.378906 -2.078125 6.703125 -2.296875 C 7.035156 -2.515625 7.203125 -2.796875 7.203125 -3.140625 L 5.1875 -3.140625 L 5.1875 -4.953125 L 9.921875 -4.953125 L 9.921875 0 L 8.453125 0 L 8.171875 -0.875 C 7.359375 -0.1875 6.300781 0.15625 5 0.15625 C 3.53125 0.15625 2.425781 -0.226562 1.6875 -1 C 0.945312 -1.769531 0.578125 -2.914062 0.578125 -4.4375 C 0.578125 -5.9375 0.992188 -7.070312 1.828125 -7.84375 C 2.671875 -8.625 3.863281 -9.015625 5.40625 -9.015625 Z M 5.40625 -9.015625 "/></g></g></g><g fill="#000000" fill-opacity="1"><g transform="translate(63.698996, 28.158573)"><g><path d="M 4.671875 -9.015625 C 5.804688 -9.015625 6.738281 -8.785156 7.46875 -8.328125 C 8.207031 -7.867188 8.582031 -7.191406 8.59375 -6.296875 L 8.59375 -6.140625 L 5.921875 -6.140625 L 5.921875 -6.1875 C 5.921875 -6.445312 5.828125 -6.660156 5.640625 -6.828125 C 5.453125 -7.003906 5.164062 -7.09375 4.78125 -7.09375 C 4.40625 -7.09375 4.113281 -7.035156 3.90625 -6.921875 C 3.707031 -6.804688 3.609375 -6.671875 3.609375 -6.515625 C 3.609375 -6.273438 3.742188 -6.097656 4.015625 -5.984375 C 4.296875 -5.878906 4.738281 -5.765625 5.34375 -5.640625 C 6.0625 -5.492188 6.648438 -5.34375 7.109375 -5.1875 C 7.566406 -5.03125 7.96875 -4.769531 8.3125 -4.40625 C 8.65625 -4.039062 8.832031 -3.550781 8.84375 -2.9375 C 8.84375 -1.882812 8.488281 -1.101562 7.78125 -0.59375 C 7.070312 -0.09375 6.125 0.15625 4.9375 0.15625 C 3.550781 0.15625 2.472656 -0.0703125 1.703125 -0.53125 C 0.929688 -1 0.546875 -1.820312 0.546875 -3 L 3.25 -3 C 3.25 -2.550781 3.363281 -2.25 3.59375 -2.09375 C 3.820312 -1.945312 4.179688 -1.875 4.671875 -1.875 C 5.035156 -1.875 5.332031 -1.910156 5.5625 -1.984375 C 5.800781 -2.066406 5.921875 -2.226562 5.921875 -2.46875 C 5.921875 -2.6875 5.789062 -2.847656 5.53125 -2.953125 C 5.269531 -3.066406 4.84375 -3.179688 4.25 -3.296875 C 3.53125 -3.453125 2.929688 -3.613281 2.453125 -3.78125 C 1.984375 -3.945312 1.570312 -4.222656 1.21875 -4.609375 C 0.875 -4.992188 0.703125 -5.519531 0.703125 -6.1875 C 0.703125 -7.15625 1.078125 -7.867188 1.828125 -8.328125 C 2.578125 -8.785156 3.523438 -9.015625 4.671875 -9.015625 Z M 4.671875 -9.015625 "/></g></g></g><g fill="#000000" fill-opacity="1"><g transform="translate(72.271624, 28.158573)"><g><path d="M 4.796875 -8.875 C 7.898438 -8.875 9.453125 -7.394531 9.453125 -4.4375 C 9.453125 -1.476562 7.898438 0 4.796875 0 L 0.953125 0 L 0.953125 -8.875 Z M 3.796875 -2.125 L 4.75 -2.125 C 5.9375 -2.125 6.53125 -2.765625 6.53125 -4.046875 L 6.53125 -4.828125 C 6.53125 -6.097656 5.9375 -6.734375 4.75 -6.734375 L 3.796875 -6.734375 Z M 3.796875 -2.125 "/></g></g></g><g fill="#000000" fill-opacity="1"><g transform="translate(81.566189, 28.158573)"><g><path d="M 5.40625 -9.015625 C 6.257812 -9.015625 7.023438 -8.882812 7.703125 -8.625 C 8.390625 -8.375 8.929688 -7.992188 9.328125 -7.484375 C 9.722656 -6.984375 9.921875 -6.375 9.921875 -5.65625 L 7.203125 -5.65625 C 7.203125 -6.03125 7.035156 -6.328125 6.703125 -6.546875 C 6.378906 -6.773438 5.988281 -6.890625 5.53125 -6.890625 C 4.863281 -6.890625 4.359375 -6.710938 4.015625 -6.359375 C 3.671875 -6.003906 3.5 -5.5 3.5 -4.84375 L 3.5 -4.015625 C 3.5 -3.367188 3.671875 -2.863281 4.015625 -2.5 C 4.359375 -2.144531 4.863281 -1.96875 5.53125 -1.96875 C 5.988281 -1.96875 6.378906 -2.078125 6.703125 -2.296875 C 7.035156 -2.515625 7.203125 -2.796875 7.203125 -3.140625 L 5.1875 -3.140625 L 5.1875 -4.953125 L 9.921875 -4.953125 L 9.921875 0 L 8.453125 0 L 8.171875 -0.875 C 7.359375 -0.1875 6.300781 0.15625 5 0.15625 C 3.53125 0.15625 2.425781 -0.226562 1.6875 -1 C 0.945312 -1.769531 0.578125 -2.914062 0.578125 -4.4375 C 0.578125 -5.9375 0.992188 -7.070312 1.828125 -7.84375 C 2.671875 -8.625 3.863281 -9.015625 5.40625 -9.015625 Z M 5.40625 -9.015625 "/></g></g></g><g fill="#039be5" fill-opacity="0.4"><g transform="translate(63.698996, 37.819792)"><g><path d="M 4.796875 -8.875 C 7.898438 -8.875 9.453125 -7.394531 9.453125 -4.4375 C 9.453125 -1.476562 7.898438 0 4.796875 0 L 0.953125 0 L 0.953125 -8.875 Z M 3.796875 -2.125 L 4.75 -2.125 C 5.9375 -2.125 6.53125 -2.765625 6.53125 -4.046875 L 6.53125 -4.828125 C 6.53125 -6.097656 5.9375 -6.734375 4.75 -6.734375 L 3.796875 -6.734375 Z M 3.796875 -2.125 "/></g></g></g><g fill="#039be5" fill-opacity="0.4"><g transform="translate(72.993561, 37.819792)"><g><path d="M 0.953125 -8.875 L 8.625 -8.875 L 8.625 -6.734375 L 3.796875 -6.734375 L 3.796875 -5.515625 L 7.921875 -5.515625 L 7.921875 -3.484375 L 3.796875 -3.484375 L 3.796875 -2.125 L 8.71875 -2.125 L 8.71875 0 L 0.953125 0 Z M 0.953125 -8.875 "/></g></g></g><g fill="#039be5" fill-opacity="0.4"><g transform="translate(81.566189, 37.819792)"><g><path d="M 3.359375 0 L 0.21875 -8.875 L 3.265625 -8.875 L 5.046875 -2.9375 L 5.09375 -2.9375 L 6.890625 -8.875 L 9.796875 -8.875 L 6.671875 0 Z M 3.359375 0 "/></g></g></g><g fill="#039be5" fill-opacity="0.4"><g transform="translate(90.860755, 37.819792)"><g><path d="M 0.953125 -8.875 L 8.625 -8.875 L 8.625 -6.734375 L 3.796875 -6.734375 L 3.796875 -5.515625 L 7.921875 -5.515625 L 7.921875 -3.484375 L 3.796875 -3.484375 L 3.796875 -2.125 L 8.71875 -2.125 L 8.71875 0 L 0.953125 0 Z M 0.953125 -8.875 "/></g></g></g><g fill="#039be5" fill-opacity="0.4"><g transform="translate(99.433382, 37.819792)"><g><path d="M 0.953125 -8.875 L 3.796875 -8.875 L 3.796875 -2.265625 L 8.359375 -2.265625 L 8.359375 0 L 0.953125 0 Z M 0.953125 -8.875 "/></g></g></g><g fill="#039be5" fill-opacity="0.4"><g transform="translate(107.296973, 37.819792)"><g><path d="M 5.359375 -9.015625 C 6.890625 -9.015625 8.070312 -8.625 8.90625 -7.84375 C 9.738281 -7.0625 10.15625 -5.925781 10.15625 -4.4375 C 10.15625 -2.9375 9.738281 -1.796875 8.90625 -1.015625 C 8.070312 -0.234375 6.890625 0.15625 5.359375 0.15625 C 3.828125 0.15625 2.644531 -0.226562 1.8125 -1 C 0.988281 -1.78125 0.578125 -2.925781 0.578125 -4.4375 C 0.578125 -5.9375 0.988281 -7.070312 1.8125 -7.84375 C 2.644531 -8.625 3.828125 -9.015625 5.359375 -9.015625 Z M 5.359375 -6.890625 C 4.753906 -6.890625 4.289062 -6.703125 3.96875 -6.328125 C 3.65625 -5.960938 3.5 -5.46875 3.5 -4.84375 L 3.5 -4.015625 C 3.5 -3.390625 3.65625 -2.890625 3.96875 -2.515625 C 4.289062 -2.148438 4.753906 -1.96875 5.359375 -1.96875 C 5.972656 -1.96875 6.441406 -2.148438 6.765625 -2.515625 C 7.085938 -2.890625 7.25 -3.390625 7.25 -4.015625 L 7.25 -4.84375 C 7.25 -5.46875 7.085938 -5.960938 6.765625 -6.328125 C 6.441406 -6.703125 5.972656 -6.890625 5.359375 -6.890625 Z M 5.359375 -6.890625 "/></g></g></g><g fill="#039be5" fill-opacity="0.4"><g transform="translate(117.300594, 37.819792)"><g><path d="M 5.921875 -8.875 C 6.472656 -8.875 6.960938 -8.742188 7.390625 -8.484375 C 7.828125 -8.234375 8.164062 -7.882812 8.40625 -7.4375 C 8.644531 -7 8.765625 -6.503906 8.765625 -5.953125 L 8.765625 -5.78125 C 8.765625 -5.238281 8.644531 -4.742188 8.40625 -4.296875 C 8.164062 -3.847656 7.828125 -3.492188 7.390625 -3.234375 C 6.960938 -2.984375 6.472656 -2.859375 5.921875 -2.859375 L 3.796875 -2.859375 L 3.796875 0 L 0.953125 0 L 0.953125 -8.875 Z M 3.796875 -4.9375 L 4.96875 -4.9375 C 5.269531 -4.9375 5.492188 -5.015625 5.640625 -5.171875 C 5.796875 -5.328125 5.875 -5.535156 5.875 -5.796875 L 5.875 -5.90625 C 5.875 -6.175781 5.796875 -6.382812 5.640625 -6.53125 C 5.492188 -6.6875 5.269531 -6.765625 4.96875 -6.765625 L 3.796875 -6.765625 Z M 3.796875 -4.9375 "/></g></g></g><g fill="#039be5" fill-opacity="0.4"><g transform="translate(125.873223, 37.819792)"><g><path d="M 8.578125 0 L 8.578125 -3.203125 C 8.578125 -3.597656 8.585938 -4.003906 8.609375 -4.421875 C 8.640625 -4.835938 8.671875 -5.1875 8.703125 -5.46875 C 8.742188 -5.75 8.769531 -5.925781 8.78125 -6 L 8.734375 -6 L 7.09375 0 L 4.859375 0 L 3.203125 -6 L 3.15625 -6 C 3.164062 -5.914062 3.1875 -5.734375 3.21875 -5.453125 C 3.257812 -5.179688 3.296875 -4.835938 3.328125 -4.421875 C 3.367188 -4.003906 3.390625 -3.597656 3.390625 -3.203125 L 3.390625 0 L 0.765625 0 L 0.765625 -8.875 L 4.796875 -8.875 L 6.140625 -3.75 L 6.1875 -3.75 L 7.515625 -8.875 L 11.390625 -8.875 L 11.390625 0 Z M 8.578125 0 "/></g></g></g><g fill="#039be5" fill-opacity="0.4"><g transform="translate(137.307821, 37.819792)"><g><path d="M 0.953125 -8.875 L 8.625 -8.875 L 8.625 -6.734375 L 3.796875 -6.734375 L 3.796875 -5.515625 L 7.921875 -5.515625 L 7.921875 -3.484375 L 3.796875 -3.484375 L 3.796875 -2.125 L 8.71875 -2.125 L 8.71875 0 L 0.953125 0 Z M 0.953125 -8.875 "/></g></g></g><g fill="#039be5" fill-opacity="0.4"><g transform="translate(145.88045, 37.819792)"><g><path d="M 7.296875 0 L 3.578125 -4.3125 L 3.578125 0 L 0.953125 0 L 0.953125 -8.875 L 3.4375 -8.875 L 7.171875 -4.5 L 7.171875 -8.875 L 9.78125 -8.875 L 9.78125 0 Z M 7.296875 0 "/></g></g></g><g fill="#039be5" fill-opacity="0.4"><g transform="translate(155.884071, 37.819792)"><g><path d="M 6.0625 -6.59375 L 6.0625 0 L 3.203125 0 L 3.203125 -6.59375 L 0.296875 -6.59375 L 0.296875 -8.875 L 8.953125 -8.875 L 8.953125 -6.59375 Z M 6.0625 -6.59375 "/></g></g></g><g fill="#039be5" fill-opacity="0.4"><g transform="translate(164.4567, 37.819792)"><g><path d="M 4.671875 -9.015625 C 5.804688 -9.015625 6.738281 -8.785156 7.46875 -8.328125 C 8.207031 -7.867188 8.582031 -7.191406 8.59375 -6.296875 L 8.59375 -6.140625 L 5.921875 -6.140625 L 5.921875 -6.1875 C 5.921875 -6.445312 5.828125 -6.660156 5.640625 -6.828125 C 5.453125 -7.003906 5.164062 -7.09375 4.78125 -7.09375 C 4.40625 -7.09375 4.113281 -7.035156 3.90625 -6.921875 C 3.707031 -6.804688 3.609375 -6.671875 3.609375 -6.515625 C 3.609375 -6.273438 3.742188 -6.097656 4.015625 -5.984375 C 4.296875 -5.878906 4.738281 -5.765625 5.34375 -5.640625 C 6.0625 -5.492188 6.648438 -5.34375 7.109375 -5.1875 C 7.566406 -5.03125 7.96875 -4.769531 8.3125 -4.40625 C 8.65625 -4.039062 8.832031 -3.550781 8.84375 -2.9375 C 8.84375 -1.882812 8.488281 -1.101562 7.78125 -0.59375 C 7.070312 -0.09375 6.125 0.15625 4.9375 0.15625 C 3.550781 0.15625 2.472656 -0.0703125 1.703125 -0.53125 C 0.929688 -1 0.546875 -1.820312 0.546875 -3 L 3.25 -3 C 3.25 -2.550781 3.363281 -2.25 3.59375 -2.09375 C 3.820312 -1.945312 4.179688 -1.875 4.671875 -1.875 C 5.035156 -1.875 5.332031 -1.910156 5.5625 -1.984375 C 5.800781 -2.066406 5.921875 -2.226562 5.921875 -2.46875 C 5.921875 -2.6875 5.789062 -2.847656 5.53125 -2.953125 C 5.269531 -3.066406 4.84375 -3.179688 4.25 -3.296875 C 3.53125 -3.453125 2.929688 -3.613281 2.453125 -3.78125 C 1.984375 -3.945312 1.570312 -4.222656 1.21875 -4.609375 C 0.875 -4.992188 0.703125 -5.519531 0.703125 -6.1875 C 0.703125 -7.15625 1.078125 -7.867188 1.828125 -8.328125 C 2.578125 -8.785156 3.523438 -9.015625 4.671875 -9.015625 Z M 4.671875 -9.015625 "/></g></g></g><g fill="#000000" fill-opacity="1"><g transform="translate(63.698996, 37.819792)"><g><path d="M 4.796875 -8.875 C 7.898438 -8.875 9.453125 -7.394531 9.453125 -4.4375 C 9.453125 -1.476562 7.898438 0 4.796875 0 L 0.953125 0 L 0.953125 -8.875 Z M 3.796875 -2.125 L 4.75 -2.125 C 5.9375 -2.125 6.53125 -2.765625 6.53125 -4.046875 L 6.53125 -4.828125 C 6.53125 -6.097656 5.9375 -6.734375 4.75 -6.734375 L 3.796875 -6.734375 Z M 3.796875 -2.125 "/></g></g></g><g fill="#000000" fill-opacity="1"><g transform="translate(72.993561, 37.819792)"><g><path d="M 0.953125 -8.875 L 8.625 -8.875 L 8.625 -6.734375 L 3.796875 -6.734375 L 3.796875 -5.515625 L 7.921875 -5.515625 L 7.921875 -3.484375 L 3.796875 -3.484375 L 3.796875 -2.125 L 8.71875 -2.125 L 8.71875 0 L 0.953125 0 Z M 0.953125 -8.875 "/></g></g></g><g fill="#000000" fill-opacity="1"><g transform="translate(81.566189, 37.819792)"><g><path d="M 3.359375 0 L 0.21875 -8.875 L 3.265625 -8.875 L 5.046875 -2.9375 L 5.09375 -2.9375 L 6.890625 -8.875 L 9.796875 -8.875 L 6.671875 0 Z M 3.359375 0 "/></g></g></g><g fill="#000000" fill-opacity="1"><g transform="translate(90.860755, 37.819792)"><g><path d="M 0.953125 -8.875 L 8.625 -8.875 L 8.625 -6.734375 L 3.796875 -6.734375 L 3.796875 -5.515625 L 7.921875 -5.515625 L 7.921875 -3.484375 L 3.796875 -3.484375 L 3.796875 -2.125 L 8.71875 -2.125 L 8.71875 0 L 0.953125 0 Z M 0.953125 -8.875 "/></g></g></g><g fill="#000000" fill-opacity="1"><g transform="translate(99.433382, 37.819792)"><g><path d="M 0.953125 -8.875 L 3.796875 -8.875 L 3.796875 -2.265625 L 8.359375 -2.265625 L 8.359375 0 L 0.953125 0 Z M 0.953125 -8.875 "/></g></g></g><g fill="#000000" fill-opacity="1"><g transform="translate(107.296973, 37.819792)"><g><path d="M 5.359375 -9.015625 C 6.890625 -9.015625 8.070312 -8.625 8.90625 -7.84375 C 9.738281 -7.0625 10.15625 -5.925781 10.15625 -4.4375 C 10.15625 -2.9375 9.738281 -1.796875 8.90625 -1.015625 C 8.070312 -0.234375 6.890625 0.15625 5.359375 0.15625 C 3.828125 0.15625 2.644531 -0.226562 1.8125 -1 C 0.988281 -1.78125 0.578125 -2.925781 0.578125 -4.4375 C 0.578125 -5.9375 0.988281 -7.070312 1.8125 -7.84375 C 2.644531 -8.625 3.828125 -9.015625 5.359375 -9.015625 Z M 5.359375 -6.890625 C 4.753906 -6.890625 4.289062 -6.703125 3.96875 -6.328125 C 3.65625 -5.960938 3.5 -5.46875 3.5 -4.84375 L 3.5 -4.015625 C 3.5 -3.390625 3.65625 -2.890625 3.96875 -2.515625 C 4.289062 -2.148438 4.753906 -1.96875 5.359375 -1.96875 C 5.972656 -1.96875 6.441406 -2.148438 6.765625 -2.515625 C 7.085938 -2.890625 7.25 -3.390625 7.25 -4.015625 L 7.25 -4.84375 C 7.25 -5.46875 7.085938 -5.960938 6.765625 -6.328125 C 6.441406 -6.703125 5.972656 -6.890625 5.359375 -6.890625 Z M 5.359375 -6.890625 "/></g></g></g><g fill="#000000" fill-opacity="1"><g transform="translate(117.300594, 37.819792)"><g><path d="M 5.921875 -8.875 C 6.472656 -8.875 6.960938 -8.742188 7.390625 -8.484375 C 7.828125 -8.234375 8.164062 -7.882812 8.40625 -7.4375 C 8.644531 -7 8.765625 -6.503906 8.765625 -5.953125 L 8.765625 -5.78125 C 8.765625 -5.238281 8.644531 -4.742188 8.40625 -4.296875 C 8.164062 -3.847656 7.828125 -3.492188 7.390625 -3.234375 C 6.960938 -2.984375 6.472656 -2.859375 5.921875 -2.859375 L 3.796875 -2.859375 L 3.796875 0 L 0.953125 0 L 0.953125 -8.875 Z M 3.796875 -4.9375 L 4.96875 -4.9375 C 5.269531 -4.9375 5.492188 -5.015625 5.640625 -5.171875 C 5.796875 -5.328125 5.875 -5.535156 5.875 -5.796875 L 5.875 -5.90625 C 5.875 -6.175781 5.796875 -6.382812 5.640625 -6.53125 C 5.492188 -6.6875 5.269531 -6.765625 4.96875 -6.765625 L 3.796875 -6.765625 Z M 3.796875 -4.9375 "/></g></g></g><g fill="#000000" fill-opacity="1"><g transform="translate(125.873223, 37.819792)"><g><path d="M 8.578125 0 L 8.578125 -3.203125 C 8.578125 -3.597656 8.585938 -4.003906 8.609375 -4.421875 C 8.640625 -4.835938 8.671875 -5.1875 8.703125 -5.46875 C 8.742188 -5.75 8.769531 -5.925781 8.78125 -6 L 8.734375 -6 L 7.09375 0 L 4.859375 0 L 3.203125 -6 L 3.15625 -6 C 3.164062 -5.914062 3.1875 -5.734375 3.21875 -5.453125 C 3.257812 -5.179688 3.296875 -4.835938 3.328125 -4.421875 C 3.367188 -4.003906 3.390625 -3.597656 3.390625 -3.203125 L 3.390625 0 L 0.765625 0 L 0.765625 -8.875 L 4.796875 -8.875 L 6.140625 -3.75 L 6.1875 -3.75 L 7.515625 -8.875 L 11.390625 -8.875 L 11.390625 0 Z M 8.578125 0 "/></g></g></g><g fill="#000000" fill-opacity="1"><g transform="translate(137.307821, 37.819792)"><g><path d="M 0.953125 -8.875 L 8.625 -8.875 L 8.625 -6.734375 L 3.796875 -6.734375 L 3.796875 -5.515625 L 7.921875 -5.515625 L 7.921875 -3.484375 L 3.796875 -3.484375 L 3.796875 -2.125 L 8.71875 -2.125 L 8.71875 0 L 0.953125 0 Z M 0.953125 -8.875 "/></g></g></g><g fill="#000000" fill-opacity="1"><g transform="translate(145.88045, 37.819792)"><g><path d="M 7.296875 0 L 3.578125 -4.3125 L 3.578125 0 L 0.953125 0 L 0.953125 -8.875 L 3.4375 -8.875 L 7.171875 -4.5 L 7.171875 -8.875 L 9.78125 -8.875 L 9.78125 0 Z M 7.296875 0 "/></g></g></g><g fill="#000000" fill-opacity="1"><g transform="translate(155.884071, 37.819792)"><g><path d="M 6.0625 -6.59375 L 6.0625 0 L 3.203125 0 L 3.203125 -6.59375 L 0.296875 -6.59375 L 0.296875 -8.875 L 8.953125 -8.875 L 8.953125 -6.59375 Z M 6.0625 -6.59375 "/></g></g></g><g fill="#000000" fill-opacity="1"><g transform="translate(164.4567, 37.819792)"><g><path d="M 4.671875 -9.015625 C 5.804688 -9.015625 6.738281 -8.785156 7.46875 -8.328125 C 8.207031 -7.867188 8.582031 -7.191406 8.59375 -6.296875 L 8.59375 -6.140625 L 5.921875 -6.140625 L 5.921875 -6.1875 C 5.921875 -6.445312 5.828125 -6.660156 5.640625 -6.828125 C 5.453125 -7.003906 5.164062 -7.09375 4.78125 -7.09375 C 4.40625 -7.09375 4.113281 -7.035156 3.90625 -6.921875 C 3.707031 -6.804688 3.609375 -6.671875 3.609375 -6.515625 C 3.609375 -6.273438 3.742188 -6.097656 4.015625 -5.984375 C 4.296875 -5.878906 4.738281 -5.765625 5.34375 -5.640625 C 6.0625 -5.492188 6.648438 -5.34375 7.109375 -5.1875 C 7.566406 -5.03125 7.96875 -4.769531 8.3125 -4.40625 C 8.65625 -4.039062 8.832031 -3.550781 8.84375 -2.9375 C 8.84375 -1.882812 8.488281 -1.101562 7.78125 -0.59375 C 7.070312 -0.09375 6.125 0.15625 4.9375 0.15625 C 3.550781 0.15625 2.472656 -0.0703125 1.703125 -0.53125 C 0.929688 -1 0.546875 -1.820312 0.546875 -3 L 3.25 -3 C 3.25 -2.550781 3.363281 -2.25 3.59375 -2.09375 C 3.820312 -1.945312 4.179688 -1.875 4.671875 -1.875 C 5.035156 -1.875 5.332031 -1.910156 5.5625 -1.984375 C 5.800781 -2.066406 5.921875 -2.226562 5.921875 -2.46875 C 5.921875 -2.6875 5.789062 -2.847656 5.53125 -2.953125 C 5.269531 -3.066406 4.84375 -3.179688 4.25 -3.296875 C 3.53125 -3.453125 2.929688 -3.613281 2.453125 -3.78125 C 1.984375 -3.945312 1.570312 -4.222656 1.21875 -4.609375 C 0.875 -4.992188 0.703125 -5.519531 0.703125 -6.1875 C 0.703125 -7.15625 1.078125 -7.867188 1.828125 -8.328125 C 2.578125 -8.785156 3.523438 -9.015625 4.671875 -9.015625 Z M 4.671875 -9.015625 "/></g></g></g><g clip-path="url(#8bd41b916e)"><path fill="#242424" d="M 51.570312 11.210938 L 56.640625 11.210938 L 56.640625 17.597656 L 63.699219 22.78125 L 58.621094 22.78125 L 58.621094 38.390625 L 42.710938 38.390625 L 42.710938 7.359375 L 51.570312 13.871094 Z M 51.570312 11.210938 " fill-opacity="1" fill-rule="nonzero"/></g><g clip-path="url(#e76e8a6723)"><path fill="#242424" d="M 2.195312 37.359375 L 2.195312 38.394531 L 41.363281 38.394531 L 41.363281 37.359375 L 32.90625 37.359375 L 32.90625 35.210938 L 41.363281 35.210938 L 41.363281 34.175781 L 32.90625 34.175781 L 32.90625 16.816406 L 41.363281 12.632812 L 41.363281 11.480469 L 32.90625 15.664062 L 32.90625 12.558594 L 41.363281 8.375 L 41.363281 7.226562 L 32.90625 11.40625 L 32.90625 0.289062 L 31.871094 0.289062 L 31.871094 11.917969 L 28.863281 13.40625 L 28.863281 0.289062 L 27.828125 0.289062 L 27.828125 13.917969 L 18.195312 18.679688 L 18.195312 11.210938 L 17.164062 11.210938 L 17.164062 19.191406 L 9.304688 23.078125 L 9.304688 24.226562 L 17.164062 20.34375 L 17.164062 23.449219 L 6.601562 28.675781 L 6.601562 29.828125 L 17.164062 24.597656 L 17.164062 34.171875 L 9.078125 34.171875 L 9.078125 35.207031 L 17.164062 35.207031 L 17.164062 37.355469 L 2.195312 37.355469 Z M 28.863281 35.207031 L 31.871094 35.207031 L 31.871094 37.355469 L 28.863281 37.355469 Z M 28.863281 18.816406 L 31.871094 17.328125 L 31.871094 34.175781 L 28.863281 34.175781 Z M 28.863281 14.554688 L 31.871094 13.066406 L 31.871094 16.175781 L 28.863281 17.664062 Z M 18.195312 35.207031 L 27.828125 35.207031 L 27.828125 37.355469 L 18.195312 37.355469 Z M 18.195312 24.09375 L 27.828125 19.328125 L 27.828125 34.175781 L 18.195312 34.175781 Z M 18.195312 19.835938 L 27.828125 15.070312 L 27.828125 18.175781 L 18.195312 22.9375 Z M 18.195312 19.835938 " fill-opacity="1" fill-rule="nonzero"/></g></svg>